<svg xmlns="http://www.w3.org/2000/svg" version="1.1" xmlns:xlink="http://www.w3.org/1999/xlink" xmlns:svgjs="http://svgjs.dev/svgjs" width="2000" height="373" viewBox="0 0 2000 373"><g transform="matrix(1,0,0,1,-1.2120901214267406,1.0101484571093522)"><svg viewBox="0 0 396 74" data-background-color="#ffffff" preserveAspectRatio="xMidYMid meet" height="373" width="2000" xmlns="http://www.w3.org/2000/svg" xmlns:xlink="http://www.w3.org/1999/xlink"><g id="tight-bounds" transform="matrix(1,0,0,1,0.23999384404248758,-0.20040478773751147)"><svg viewBox="0 0 395.52 74.40080957547501" height="74.40080957547501" width="395.52"><g><svg viewBox="0 0 517.3562857889285 97.31929232821881" height="74.40080957547501" width="395.52"><g><rect width="4.009423415186017" height="97.31929232821881" x="107.3309895591194" y="0" fill="#33bbcf" opacity="1" stroke-width="0" stroke="transparent" fill-opacity="1" class="rect-o-0" data-fill-palette-color="primary" rx="1%" id="o-0" data-palette-color="#33bbcf"></rect></g><g transform="matrix(1,0,0,1,121.8362857889285,0.24208779186123763)"><svg viewBox="0 0 395.52 96.83511674449633" height="96.83511674449633" width="395.52"><g id="textblocktransform"><svg viewBox="0 0 395.52 96.83511674449633" height="96.83511674449633" width="395.52" id="textblock"><g><svg viewBox="0 0 395.52 96.83511674449633" height="96.83511674449633" width="395.52"><g transform="matrix(1,0,0,1,0,0)"><svg width="395.52" viewBox="0 -33.10000228881836 299.79998779296875 70.40000915527344" height="96.83511674449633" data-palette-color="#33bbcf"><svg></svg><svg></svg><g class="wordmark-text-0" data-fill-palette-color="primary" id="text-0"><path xmlns="http://www.w3.org/2000/svg" d="M11.2 0h-8.2v-32.5h8.7l5.45 14.5 2.65 7.3h0.2c-0.1-0.867-0.217-1.817-0.35-2.85-0.133-1.033-0.267-2.093-0.4-3.18-0.133-1.08-0.24-2.163-0.32-3.25-0.087-1.08-0.13-2.12-0.13-3.12v0-9.4h8.2v32.5h-8.7l-5.45-14.55-2.65-7.25h-0.2c0.2 1.867 0.45 3.9 0.75 6.1 0.3 2.2 0.45 4.3 0.45 6.3v0zM56.8 0h-22.6v-32.5h22.1v7.2h-13.5v5.1h11.5v7.2h-11.5v5.8h14zM72.85 0h-8.7l-4.05-32.5h8.8l0.4 16.1v8.4h0.2c0.2-1.4 0.45-2.8 0.75-4.2 0.3-1.4 0.583-2.8 0.85-4.2v0l1.8-7.9h5l1.65 7.9c0.233 1.333 0.5 2.7 0.8 4.1 0.3 1.4 0.567 2.833 0.8 4.3v0h0.2v-8.4l0.4-16.1h8.2l-3.75 32.5h-8.9l-1.45-8.9c-0.167-1.067-0.323-2.15-0.47-3.25-0.153-1.1-0.247-2.133-0.28-3.1v0h-0.15c-0.067 0.967-0.167 2-0.3 3.1-0.133 1.1-0.283 2.183-0.45 3.25v0zM104.8 0.6v0c-2.133 0-4.307-0.377-6.52-1.13-2.22-0.747-4.247-1.92-6.08-3.52v0l4.9-5.9c1.233 0.933 2.55 1.69 3.95 2.27 1.4 0.587 2.85 0.88 4.35 0.88v0c1.3 0 2.223-0.183 2.77-0.55 0.553-0.367 0.83-0.817 0.83-1.35v0c0-0.467-0.11-0.86-0.33-1.18-0.213-0.313-0.52-0.597-0.92-0.85-0.4-0.247-0.89-0.487-1.47-0.72-0.587-0.233-1.247-0.5-1.98-0.8v0l-4.05-1.7c-0.933-0.333-1.817-0.777-2.65-1.33-0.833-0.547-1.56-1.197-2.18-1.95-0.613-0.747-1.103-1.603-1.47-2.57-0.367-0.967-0.55-2.033-0.55-3.2v0c0-1.4 0.3-2.71 0.9-3.93 0.6-1.213 1.443-2.28 2.53-3.2 1.08-0.913 2.377-1.637 3.89-2.17 1.52-0.533 3.213-0.8 5.08-0.8v0c1.933 0 3.867 0.35 5.8 1.05 1.933 0.7 3.7 1.8 5.3 3.3v0l-4.3 5.4c-1.167-0.767-2.293-1.35-3.38-1.75-1.08-0.4-2.387-0.6-3.92-0.6v0c-0.967 0-1.743 0.173-2.33 0.52-0.58 0.353-0.87 0.913-0.87 1.68v0c0 0.367 0.117 0.69 0.35 0.97 0.233 0.287 0.567 0.547 1 0.78 0.433 0.233 0.967 0.467 1.6 0.7 0.633 0.233 1.35 0.5 2.15 0.8v0l3.75 1.55c2.2 0.8 3.893 1.917 5.08 3.35 1.18 1.433 1.77 3.283 1.77 5.55v0c0 1.367-0.283 2.683-0.85 3.95-0.567 1.267-1.4 2.373-2.5 3.32-1.1 0.953-2.457 1.713-4.07 2.28-1.62 0.567-3.48 0.85-5.58 0.85z" fill="#33bbcf" fill-rule="nonzero" stroke="none" stroke-width="1" stroke-linecap="butt" stroke-linejoin="miter" stroke-miterlimit="10" stroke-dasharray="" stroke-dashoffset="0" font-family="none" font-weight="none" font-size="none" text-anchor="none" style="mix-blend-mode: normal" data-fill-palette-color="primary" opacity="1"></path><path xmlns="http://www.w3.org/2000/svg" d="M12.45 20.9v0l-0.5 2.25h5.8l-0.5-2.25c-0.367-1.567-0.76-3.26-1.18-5.08-0.413-1.813-0.803-3.553-1.17-5.22v0h-0.2c-0.367 1.667-0.74 3.407-1.12 5.22-0.387 1.82-0.763 3.513-1.13 5.08zM8.8 36.7h-8.8l9.8-32.5h10.4l9.8 32.5h-9.1l-1.6-6.9h-8.9zM47.25 37.3v0c-2.1 0-4.073-0.343-5.92-1.03-1.853-0.68-3.47-1.713-4.85-3.1-1.387-1.38-2.48-3.11-3.28-5.19-0.8-2.087-1.2-4.513-1.2-7.28v0c0-2.733 0.4-5.167 1.2-7.3 0.8-2.133 1.893-3.927 3.28-5.38 1.38-1.447 3.003-2.547 4.87-3.3 1.867-0.747 3.85-1.12 5.95-1.12v0c2.2 0 4.1 0.423 5.7 1.27 1.6 0.853 2.933 1.83 4 2.93v0l-4.7 5.3c-0.667-0.667-1.377-1.183-2.13-1.55-0.747-0.367-1.703-0.55-2.87-0.55v0c-0.9 0-1.743 0.217-2.53 0.65-0.78 0.433-1.46 1.05-2.04 1.85-0.587 0.8-1.047 1.783-1.38 2.95-0.333 1.167-0.5 2.483-0.5 3.95v0c0 3.067 0.567 5.417 1.7 7.05 1.133 1.633 2.867 2.45 5.2 2.45v0c0.4 0 0.8-0.05 1.2-0.15 0.4-0.1 0.733-0.25 1-0.45v0-4.5h-4.05v-7h11.7v15.5c-0.567 0.5-1.223 0.99-1.97 1.47-0.753 0.487-1.58 0.913-2.48 1.28-0.9 0.367-1.85 0.667-2.85 0.9-1 0.233-2.017 0.35-3.05 0.35zM77.25 37.3v0c-2.1 0-4.073-0.343-5.92-1.03-1.853-0.68-3.473-1.713-4.86-3.1-1.38-1.38-2.47-3.11-3.27-5.19-0.8-2.087-1.2-4.513-1.2-7.28v0c0-2.733 0.4-5.167 1.2-7.3 0.8-2.133 1.89-3.927 3.27-5.38 1.387-1.447 3.013-2.547 4.88-3.3 1.867-0.747 3.85-1.12 5.95-1.12v0c2.2 0 4.1 0.423 5.7 1.27 1.6 0.853 2.933 1.83 4 2.93v0l-4.7 5.3c-0.667-0.667-1.377-1.183-2.13-1.55-0.747-0.367-1.703-0.55-2.87-0.55v0c-0.9 0-1.74 0.217-2.52 0.65-0.787 0.433-1.473 1.05-2.06 1.85-0.58 0.8-1.037 1.783-1.37 2.95-0.333 1.167-0.5 2.483-0.5 3.95v0c0 3.067 0.567 5.417 1.7 7.05 1.133 1.633 2.867 2.45 5.2 2.45v0c0.4 0 0.8-0.05 1.2-0.15 0.4-0.1 0.733-0.25 1-0.45v0-4.5h-4.05v-7h11.7v15.5c-0.567 0.5-1.223 0.99-1.97 1.47-0.753 0.487-1.58 0.913-2.48 1.28-0.9 0.367-1.85 0.667-2.85 0.9-1 0.233-2.017 0.35-3.05 0.35zM101.5 36.7h-8.6v-32.5h12.1c1.733 0 3.39 0.167 4.97 0.5 1.587 0.333 2.973 0.9 4.16 1.7 1.18 0.8 2.12 1.873 2.82 3.22 0.7 1.353 1.05 3.047 1.05 5.08v0c0 2.333-0.473 4.267-1.42 5.8-0.953 1.533-2.23 2.733-3.83 3.6v0l7.05 12.6h-9.6l-5.6-10.9h-3.1zM101.5 11v8h2.9c3.467 0 5.2-1.433 5.2-4.3v0c0-1.4-0.44-2.367-1.32-2.9-0.887-0.533-2.18-0.8-3.88-0.8v0zM146.8 36.7h-22.6v-32.5h22.1v7.2h-13.5v5.1h11.5v7.2h-11.5v5.8h14zM167.25 37.3v0c-2.1 0-4.077-0.343-5.93-1.03-1.847-0.68-3.463-1.713-4.85-3.1-1.38-1.38-2.47-3.11-3.27-5.19-0.8-2.087-1.2-4.513-1.2-7.28v0c0-2.733 0.4-5.167 1.2-7.3 0.8-2.133 1.89-3.927 3.27-5.38 1.387-1.447 3.013-2.547 4.88-3.3 1.867-0.747 3.85-1.12 5.95-1.12v0c2.2 0 4.1 0.423 5.7 1.27 1.6 0.853 2.933 1.83 4 2.93v0l-4.7 5.3c-0.667-0.667-1.373-1.183-2.12-1.55-0.753-0.367-1.713-0.55-2.88-0.55v0c-0.9 0-1.74 0.217-2.52 0.65-0.787 0.433-1.473 1.05-2.06 1.85-0.58 0.8-1.037 1.783-1.37 2.95-0.333 1.167-0.5 2.483-0.5 3.95v0c0 3.067 0.567 5.417 1.7 7.05 1.133 1.633 2.867 2.45 5.2 2.45v0c0.4 0 0.8-0.05 1.2-0.15 0.4-0.1 0.733-0.25 1-0.45v0-4.5h-4.05v-7h11.7v15.5c-0.567 0.5-1.223 0.99-1.97 1.47-0.753 0.487-1.58 0.913-2.48 1.28-0.9 0.367-1.85 0.667-2.85 0.9-1 0.233-2.017 0.35-3.05 0.35zM192.45 20.9v0l-0.5 2.25h5.8l-0.5-2.25c-0.367-1.567-0.76-3.26-1.18-5.08-0.413-1.813-0.803-3.553-1.17-5.22v0h-0.2c-0.367 1.667-0.743 3.407-1.13 5.22-0.38 1.82-0.753 3.513-1.12 5.08zM188.8 36.7h-8.8l9.8-32.5h10.4l9.8 32.5h-9.1l-1.6-6.9h-8.9zM229.3 36.7h-8.6v-25.3h-9.35v-7.2h27.3v7.2h-9.35zM255 37.3v0c-1.967 0-3.767-0.36-5.4-1.08-1.633-0.713-3.033-1.78-4.2-3.2-1.167-1.413-2.073-3.177-2.72-5.29-0.653-2.12-0.98-4.597-0.98-7.43v0c0-2.733 0.327-5.143 0.98-7.23 0.647-2.08 1.553-3.82 2.72-5.22 1.167-1.4 2.567-2.457 4.2-3.17 1.633-0.72 3.433-1.08 5.4-1.08v0c1.967 0 3.767 0.36 5.4 1.08 1.633 0.713 3.033 1.77 4.2 3.17 1.167 1.4 2.073 3.14 2.72 5.22 0.653 2.087 0.98 4.497 0.98 7.23v0c0 2.833-0.327 5.31-0.98 7.43-0.647 2.113-1.553 3.877-2.72 5.29-1.167 1.42-2.567 2.487-4.2 3.2-1.633 0.72-3.433 1.08-5.4 1.08zM255 29.9v0c1.4 0 2.5-0.783 3.3-2.35 0.8-1.567 1.2-3.983 1.2-7.25v0c0-3.133-0.4-5.467-1.2-7-0.8-1.533-1.9-2.3-3.3-2.3v0c-1.4 0-2.5 0.767-3.3 2.3-0.8 1.533-1.2 3.867-1.2 7v0c0 3.267 0.4 5.683 1.2 7.25 0.8 1.567 1.9 2.35 3.3 2.35zM281.5 36.7h-8.6v-32.5h12.1c1.733 0 3.393 0.167 4.98 0.5 1.58 0.333 2.963 0.9 4.15 1.7 1.18 0.8 2.12 1.873 2.82 3.22 0.7 1.353 1.05 3.047 1.05 5.08v0c0 2.333-0.477 4.267-1.43 5.8-0.947 1.533-2.22 2.733-3.82 3.6v0l7.05 12.6h-9.6l-5.6-10.9h-3.1zM281.5 11v8h2.9c3.467 0 5.2-1.433 5.2-4.3v0c0-1.4-0.443-2.367-1.33-2.9-0.88-0.533-2.17-0.8-3.87-0.8v0z" fill="#33bbcf" fill-rule="nonzero" stroke="none" stroke-width="1" stroke-linecap="butt" stroke-linejoin="miter" stroke-miterlimit="10" stroke-dasharray="" stroke-dashoffset="0" font-family="none" font-weight="none" font-size="none" text-anchor="none" style="mix-blend-mode: normal" data-fill-palette-color="primary" opacity="1"></path></g></svg></g></svg></g></svg></g></svg></g><g transform="matrix(1,0,0,1,0,0.24208779186124474)"><svg viewBox="0 0 96.83511674449632 96.83511674449632" height="96.83511674449632" width="96.83511674449632"><g><svg xmlns="http://www.w3.org/2000/svg" xmlns:xlink="http://www.w3.org/1999/xlink" version="1.1" x="0" y="0" viewBox="5 5 90 90" enable-background="new 0 0 100 100" xml:space="preserve" height="96.83511674449632" width="96.83511674449632" class="icon-icon-0" data-fill-palette-color="accent" id="icon-0"><g fill="#33bbcf" data-fill-palette-color="accent"><path d="M50 5C25.2 5 5 25.1 5 50s20.2 45 45 45 45-20.1 45-45S74.8 5 50 5zM27 28h20v19H27V28zM50 72.5H27.5v-1.4H50V72.5zM72.5 64.1h-45v-1.4h45V64.1zM72.5 55.6h-45v-1.4h45V55.6zM72.5 47.2H51.9v-1.4h20.6V47.2zM72.5 38.7H51.9v-1.4h20.6V38.7zM72.5 29.3H51.9v-1.4h20.6V29.3z" fill="#33bbcf" data-fill-palette-color="accent"></path></g></svg></g></svg></g></svg></g><defs></defs></svg><rect width="395.52" height="74.40080957547501" fill="none" stroke="none" visibility="hidden"></rect></g></svg></g></svg>